<svg xmlns="http://www.w3.org/2000/svg" xmlns:xlink="http://www.w3.org/1999/xlink" width="110" height="110" viewBox="-35 -35 110 110"><image overflow="visible" width="39" height="40" xlink:href="9255EFA.png" transform="translate(117.557 2.135)"/><path fill="#8AFDFF" d="M67.226 34.017c0-.39-.296-.81-.657-.947l-5.54-2.104c-.36-.14-.84-.507-1.07-.816l-3.63-4.94c-.23-.308-.23-.82-.006-1.13L66.8 9.795c.23-.31.414-.88.414-1.267V2.972c0-.388-.315-.7-.7-.7l-16.807-.018c-.39 0-.7-.318-.7-.7L49.1-14.99c0-.386-.297-.603-.664-.48L31.608-9.894c-.367.12-.85-.037-1.073-.35L20.2-24.636c-.23-.312-.593-.312-.82 0L9.048-10.242c-.227.314-.71.47-1.073.35L-8.84-15.45c-.364-.12-.665.095-.66.483l.077 16.462c0 .388-.31.7-.7.7l-16.782-.013c-.388 0-.7.315-.7.702v5.69c0 .385.184.955.414 1.266l10.47 14.273c.23.31.23.82 0 1.126l-5.31 7.23c-.23.31-.73.58-1.12.595 0 0-5.164.214-5.11.247.358.193.04 6.063.04 6.063-.02.39.187.73.464.76.275.034.803.154 1.17.27l16.52 5.27c.367.118.667.53.664.915l-.09 17.72c-.004.386.293.603.66.48L8 59.223c.364-.12.85.04 1.074.35l10.34 14.38c.227.314.59.314.82 0l10.33-14.386c.225-.31.706-.47 1.073-.35L48.45 64.77c.37.12.67-.095.665-.483l-.077-17.705c0-.386.3-.797.67-.915l16.856-5.4c.367-.12.666-.53.666-.916v-5.33h-.004z"/><path fill="#8AFDFF" d="M-9.182 2.73v.017l-.12-.062c.04.014.077.03.12.045z"/><radialGradient id="a" cx="-108.285" cy="124.192" r="71.459" gradientTransform="matrix(1 0 0 -1 164 115)" gradientUnits="userSpaceOnUse"><stop offset="0" stop-color="#A1F2FF"/><stop offset=".254" stop-color="#64CAF1"/><stop offset="1" stop-color="#2492C0"/></radialGradient><path fill="url(#a)" d="M67.226 33.08L49.03 38.915l.083 19.106-18.145-5.99L19.82 67.56 8.66 52.03l-18.15 6.02.1-19.124-18.21-5.805 11.296-15.41-11.3-15.4 18.19-5.83-.09-19.102 18.15 5.99L19.79-32.17l11.155 15.53 18.158-6.014-.105 19.114 18.217 5.81-11.297 15.414"/><radialGradient id="b" cx="-108.285" cy="124.192" r="71.459" gradientTransform="matrix(1 0 0 -1 164 115)" gradientUnits="userSpaceOnUse"><stop offset="0" stop-color="#A1F2FF"/><stop offset=".254" stop-color="#64CAF1"/><stop offset="1" stop-color="#2492C0"/></radialGradient><path fill="url(#b)" d="M67.226 33.08L49.03 38.915l.083 19.106-18.145-5.99L19.82 67.56 8.66 52.03l-18.15 6.02.1-19.124-18.21-5.805 11.296-15.41-11.3-15.4 18.19-5.83-.09-19.102 18.15 5.99L19.79-32.17l11.155 15.53 18.158-6.014-.105 19.114 18.217 5.81-11.297 15.414"/><path opacity=".2" fill="#2592C1" d="M-7.212 54.83c4.474-1.48 8.943-2.97 13.42-4.442.49-.162.992-.332 1.503-.373 1.04-.088 1.97.203 2.61 1.085 1.75 2.4 3.48 4.815 5.22 7.227 1.19 1.648 2.375 3.3 3.565 4.95.08.11.17.21.29.355.12-.156.218-.27.305-.392 2.542-3.522 5.082-7.05 7.624-10.576.36-.493.742-.97 1.07-1.482.59-.926 2-1.334 2.89-1.093 1.186.32 2.35.68 3.51 1.06 3.72 1.224 7.43 2.453 11.145 3.684.475.156.485.15.485-.36.004-.72-.026-1.44.015-2.154.058-1.046-.1-2.08-.082-3.133.05-3.267.038-6.53.05-9.797.005-1.19.72-2.202 1.85-2.563 4.336-1.398 8.68-2.78 13.02-4.17.446-.14.898-.27 1.345-.43.35-.127.678-.107 1.028.01 1.26.41 2.527.81 3.79 1.22v.07c-.712.21-1.424.42-2.14.645-5.286 1.69-10.573 3.384-15.863 5.062-.33.104-.42.247-.414.587.02 3.635.026 7.26.04 10.895.01 2.5.03 5 .04 7.5v.515c-.596-.2-1.154-.38-1.72-.566-5.434-1.793-10.874-3.59-16.31-5.38-.2-.067-.36-.144-.538.11-3.692 5.156-7.4 10.31-11.105 15.464h-.07c-.89-1.25-1.776-2.506-2.675-3.755-2.773-3.86-5.554-7.714-8.322-11.582-.19-.263-.344-.34-.68-.224C1.8 54.76-4.09 56.7-9.97 58.646l2.763-3.82z"/><path opacity=".5" fill="#146182" d="M-9.82 58.688c-.055-6.345-.018-12.206.012-18.063.003-.378-.01-.756.018-1.13.022-.256-.096-.333-.312-.404-3.988-1.26-7.977-2.53-11.967-3.8-2.05-.65-4.11-1.31-6.17-1.97v-.07c.06-.04.148-.07.188-.13 2.777-3.79 5.55-7.573 8.32-11.36.98-1.334 1.956-2.67 2.946-4.016l-2.376-3.233c-2.927-3.98-5.855-7.96-8.778-11.94-.3-.41-.29-.45.197-.605C-21.89.085-16.033-1.792-10.17-3.66c.18-.058.384-.047.577-.07l.062.05c.58.31 1.15.638 1.74.92.28.13.26.23.11.47-.446.706-1.13 1.03-1.88 1.27-1.93.624-3.865 1.26-5.8 1.882-2.16.69-4.32 1.372-6.486 2.06-.5.16-1.008.316-1.51.482-.13.042-.26.102-.43.174.374.514.722.993 1.075 1.47 2.707 3.683 5.427 7.355 8.103 11.06.284.39.43.966.425 1.454 0 .415-.308.83-.484 1.263.206.048.253.193.064.45-3.014 4.096-6.02 8.2-9.03 12.298-.068.094-.14.187-.21.277 3.943 1.252 7.88 2.507 11.813 3.753 1.04.334 2.106.603 3.115 1.01 1.146.472 1.772 1.297 1.815 2.61.01.357-.086.714-.108 1.075-.015.208.036.42.036.633 0 4.03.004 8.06 0 12.09 0 .44-.05.88.02 1.8l-2.68 3.87z"/><path opacity=".5" fill="#146182" d="M-7.177-20.2v5.65c0 .248.003.494.003.742 0 3.135-.01 6.274.012 9.41.002.53-.35.91-.422 1.395-.005.033-.227.086-.316.05-.353-.154-.693-.346-1.046-.507-.188-.087-.393-.146-.59-.222l-.06-.05c-.276-.108-.24-.35-.24-.568 0-2.148 0-4.297-.01-6.45-.018-3.78-.042-7.555-.056-12.386l2.725 2.937z"/><path opacity=".5" fill="#D2FFF3" d="M-9.878-23.096c.163.05.292.083.418.13 5.835 1.92 11.67 3.837 17.496 5.772.375.124.566.054.782-.25 1.745-2.446 3.5-4.883 5.257-7.32 1.68-2.335 3.36-4.666 5.038-7 .233-.322.44-.662.66-.993h.07c.362.542.707 1.097 1.085 1.627 1.34 1.882 2.69 3.758 4.04 5.633 1.337 1.856 2.68 3.71 4.017 5.565.422.586.844 1.17 1.257 1.76.063.097.063.237.165.315.106.168.213.334.317.502.375.4.803.15 1.23.008C37.65-19.23 43.347-21.117 49.047-23c.11-.035.225-.062.395-.108-.06.123-.093.2-.143.27l-2.07 2.812c-.24.323-.535.536-.924.666-4.563 1.505-9.12 3.025-13.68 4.543-.79.262-1.6.483-2.406.118-.394-.17-.82-.41-1.072-.74-1.04-1.37-2.02-2.8-3.03-4.2-1.71-2.37-3.427-4.74-5.14-7.11-.284-.39-.57-.773-.847-1.163-.284-.4-.38-.41-.666-.014l-3 4.18c-2.01 2.804-4.003 5.627-6.048 8.41-.607.824-1.57 1.03-2.518.79-1.445-.366-2.86-.84-4.278-1.3-3.298-1.07-6.59-2.157-9.884-3.24l-3.627-4z"/><path opacity=".5" fill="#146182" d="M67.752 2.233c-.236.326-.43.6-.63.873-3.474 4.73-6.944 9.454-10.413 14.186-.21.284-.44.445-.78.533-.45.112-.89.292-1.32.458-.19.072-.32.075-.38-.147-.02-.07-.047-.137-.074-.196-.1-.174-.317-.364-.293-.516.073-.432.155-.915.396-1.253 1.884-2.62 3.81-5.21 5.725-7.81 1.11-1.503 2.21-3.01 3.33-4.503.11-.152.28-.3.452-.363 1.243-.414 2.498-.812 3.747-1.213.054-.016.11-.016.23-.04z"/><path opacity=".5" fill="#D2FFF3" d="M67.725 2.062c-.89.292-1.69.556-2.493.816-.37.12-.748.21-1.112.354-.413.174-.81.13-1.228-.008-3.91-1.26-7.826-2.513-11.74-3.764-.84-.267-1.688-.51-2.515-.803-.302-.107-.575-.306-.847-.485-.206-.136-.23-.323-.036-.5.488-.44.983-.87 1.466-1.312.197-.18.392-.093.59-.03 2.13.678 4.256 1.353 6.385 2.032l10.99 3.503c.16.052.303.11.54.197zM49.49-22.85c0 1.11.006 2.106 0 3.1-.01 3.405-.03 6.817-.05 10.222-.013 1.74-.043 3.478-.043 5.214 0 .337-.126.527-.44.546-.598.04-1.197.053-1.795.056-.225 0-.325-.168-.32-.383.017-1.007.04-2.018.058-3.027.006-.152.01-.305.01-.458 0-3.795 0-7.59-.01-11.386 0-.338.107-.59.315-.854.688-.875 1.34-1.785 2.005-2.68.07-.09.14-.178.27-.35zm17.983 55.782c-.27-.07-.543-.137-.806-.22-.986-.31-1.967-.626-2.95-.955-.13-.047-.255-.173-.337-.285-1.047-1.416-2.082-2.84-3.123-4.265-1.724-2.36-3.45-4.72-5.172-7.08-.18-.246-.356-.5-.543-.74-.147-.203-.153-.33.11-.46.536-.275 1.073-.578 1.59-.895.25-.152.36-.034.486.14.597.81 1.2 1.622 1.797 2.432 1.16 1.578 2.317 3.156 3.48 4.734 1.776 2.41 3.55 4.82 5.32 7.23.07.09.124.188.19.287-.015.03-.027.052-.042.077z"/><path fill="none" stroke="#146182" stroke-width=".25" stroke-linecap="round" stroke-linejoin="round" stroke-miterlimit="10" d="M-9.134-4.303l-.34.634C-15.334-1.8-21.194.08-27.05 1.96l-.604.354v6.85l9.26 11.706c-.216.293-.432.586-.646.88-2.77 3.788-6.252 7.776-9.032 11.565l-.087 6.358 19.03 6.077v19.12l18.5-5.878 11.15 15.525L31.67 58.99l17.576 5.883v-19.02l18.244-5.72.076-7.078-8.985-12.052L67.61 9.32l-.023-7.362-17.066-5.62-.41-.643.06-18.87c-5.7 1.882-11.81 3.956-17.51 5.837-.422.144-.852.39-1.23-.008L20.55-32.752h-.07c-.22.332-.428.67-.66.995-1.68 2.336-3.358 4.664-5.04 6.998-1.753 2.44-3.51 4.88-5.257 7.33-.216.3-.407.374-.782.25-5.82-1.94-12.17-3.94-18-5.86L-9.126-4.3z"/></svg>